<svg id="Layer_1" data-name="Layer 1" xmlns="http://www.w3.org/2000/svg" viewBox="0 0 116.43 84.17"><defs><style>.cls-1{fill:#7c888e;}.cls-2{fill:#5aa1d1;}</style></defs><path class="cls-1" d="M116.43,21.42V62.74A21.44,21.44,0,0,1,95,84.17H81.28l-7-16.81H95a4.61,4.61,0,0,0,4.62-4.62V21.42A4.62,4.62,0,0,0,95,16.8H53.16L46.16,0H95A21.43,21.43,0,0,1,116.43,21.42Z"/><path class="cls-2" d="M75.81,84.17H21.42A21.43,21.43,0,0,1,0,62.74V21.42A21.42,21.42,0,0,1,21.42,0H40.7l7,16.8H21.42a4.62,4.62,0,0,0-4.62,4.62V62.74a4.62,4.62,0,0,0,4.62,4.62H68.81Z"/></svg>