<?xml version="1.0" encoding="utf-8"?>
<!-- Generator: Adobe Illustrator 26.3.1, SVG Export Plug-In . SVG Version: 6.00 Build 0)  -->
<svg version="1.1" id="Layer_1" xmlns="http://www.w3.org/2000/svg" xmlns:xlink="http://www.w3.org/1999/xlink" x="0px" y="0px"
	 viewBox="0 0 115 40" style="enable-background:new 0 0 115 40;" xml:space="preserve">
<style type="text/css">
	.st0{fill:#69BC45;}
	.st1{fill:#3F3E40;}
	.st2{fill:#E0E560;}
	.st3{fill:#00A3A3;}
	.st4{fill:#3ABEEE;}
</style>
<g>
	<path class="st0" d="M53,34.7c0,0.3-0.1,0.6-0.2,0.8c-0.1,0.2-0.3,0.4-0.5,0.6c-0.3,0.2-0.6,0.4-1.1,0.6c-0.4,0.1-0.9,0.2-1.3,0.2
		c-1,0-1.8-0.2-2.4-0.7c-0.3-0.2-0.5-0.5-0.6-0.8c-0.2-0.3-0.2-0.6-0.2-1h1.1c0,0.2,0.1,0.4,0.2,0.6c0.1,0.2,0.2,0.4,0.4,0.5
		c0.2,0.2,0.4,0.3,0.7,0.3c0.3,0.1,0.6,0.1,0.9,0.1c0.3,0,0.6,0,0.9-0.1c0.3-0.1,0.5-0.2,0.7-0.3c0.1-0.1,0.2-0.2,0.3-0.4
		c0.1-0.1,0.1-0.3,0.1-0.5c0-0.3-0.1-0.5-0.3-0.7c-0.2-0.2-0.6-0.4-1.1-0.4c-0.2,0-0.4-0.1-0.7-0.1c-0.2,0-0.4-0.1-0.7-0.1
		c-0.3,0-0.6-0.1-0.9-0.2s-0.5-0.2-0.7-0.4s-0.4-0.4-0.5-0.6c-0.1-0.2-0.2-0.5-0.2-0.8c0-0.3,0.1-0.5,0.2-0.8s0.3-0.5,0.5-0.6
		c0.6-0.5,1.3-0.7,2.2-0.7c0.4,0,0.8,0.1,1.2,0.2c0.4,0.1,0.7,0.3,1,0.5c0.5,0.4,0.8,0.9,0.8,1.6h-1.1c0-0.2-0.1-0.3-0.1-0.5
		s-0.2-0.3-0.3-0.4c-0.2-0.2-0.4-0.3-0.6-0.4c-0.2-0.1-0.5-0.1-0.9-0.1c-0.3,0-0.6,0-0.8,0.1c-0.3,0.1-0.5,0.2-0.7,0.4
		c-0.1,0.1-0.2,0.2-0.3,0.4C48,31.2,48,31.3,48,31.5s0,0.3,0.1,0.4c0.1,0.1,0.2,0.2,0.3,0.3c0.1,0.1,0.2,0.1,0.4,0.2
		c0.1,0.1,0.3,0.1,0.5,0.1c0.2,0,0.5,0.1,0.7,0.1c0.2,0,0.5,0.1,0.7,0.1c0.7,0.1,1.3,0.3,1.7,0.7C52.8,33.7,53,34.2,53,34.7"/>
	<path class="st0" d="M59.3,34.2c0,0.4-0.1,0.8-0.2,1.2c-0.1,0.4-0.3,0.7-0.7,1c-0.2,0.2-0.5,0.3-0.8,0.4c-0.3,0.1-0.6,0.2-1,0.2
		c-0.4,0-0.7-0.1-1-0.2c-0.3-0.1-0.6-0.3-0.8-0.4c-0.3-0.3-0.6-0.6-0.7-1s-0.2-0.7-0.2-1.2c0-0.4,0.1-0.8,0.2-1.2s0.3-0.7,0.7-1
		c0.2-0.2,0.5-0.3,0.8-0.4c0.3-0.1,0.6-0.2,1-0.2c0.4,0,0.7,0.1,1,0.2c0.3,0.1,0.6,0.3,0.8,0.4c0.3,0.3,0.6,0.6,0.7,1
		C59.2,33.4,59.3,33.7,59.3,34.2 M58.2,34.2c0-0.3,0-0.6-0.1-0.9c-0.1-0.3-0.2-0.5-0.4-0.7c-0.1-0.1-0.3-0.2-0.5-0.3
		c-0.2-0.1-0.4-0.1-0.6-0.1c-0.2,0-0.4,0-0.6,0.1c-0.2,0.1-0.3,0.2-0.5,0.3c-0.2,0.2-0.4,0.4-0.4,0.7C55,33.6,55,33.9,55,34.2
		c0,0.3,0,0.6,0.1,0.9c0.1,0.3,0.2,0.5,0.4,0.7c0.1,0.1,0.3,0.2,0.5,0.3c0.2,0.1,0.4,0.1,0.6,0.1c0.2,0,0.4,0,0.6-0.1
		c0.2-0.1,0.3-0.2,0.5-0.3c0.2-0.2,0.4-0.4,0.4-0.7C58.2,34.8,58.2,34.5,58.2,34.2"/>
	<path class="st0" d="M62.6,36.7c0,0-0.1,0-0.2,0c-0.1,0-0.3,0-0.5,0c-0.4,0-0.8-0.1-1-0.3c-0.2-0.2-0.3-0.5-0.3-0.9v-6.2h1v6.1
		c0,0.2,0,0.3,0.1,0.4C61.9,36,62,36,62.2,36h0.3c0,0,0.1,0,0.1,0V36.7z"/>
	<path class="st0" d="M67.7,36.7L67.6,36c-0.2,0.3-0.4,0.5-0.7,0.7c-0.3,0.2-0.7,0.2-1,0.2c-0.7,0-1.2-0.2-1.5-0.5
		c-0.3-0.3-0.5-0.8-0.5-1.4v-3.4h1v3.3c0,0.4,0.1,0.7,0.3,0.9c0.2,0.2,0.5,0.3,1,0.3c0.2,0,0.4,0,0.5-0.1c0.2-0.1,0.3-0.2,0.4-0.3
		c0.2-0.2,0.3-0.4,0.4-0.6c0.1-0.3,0.1-0.5,0.1-0.8v-2.7h1v5.2L67.7,36.7L67.7,36.7z"/>
	<path class="st0" d="M73.5,36.7c-0.1,0-0.3,0.1-0.5,0.1c-0.2,0-0.4,0-0.7,0c-0.3,0-0.6,0-0.8-0.1c-0.2-0.1-0.4-0.2-0.5-0.3
		c-0.1-0.1-0.2-0.3-0.3-0.4c0-0.2-0.1-0.3-0.1-0.5v-3.1h-1.2v-0.7h1.2v-1.3l1-0.2v1.5h1.8v0.7h-1.8v3c0,0.2,0.1,0.4,0.2,0.5
		C72,36,72.2,36,72.5,36c0.1,0,0.2,0,0.3,0c0.1,0,0.2,0,0.3,0c0.1,0,0.2,0,0.4-0.1L73.5,36.7L73.5,36.7z"/>
	<path class="st0" d="M74.6,29.4h1.2v1h-1.2V29.4z M74.7,31.6h1v5.2h-1V31.6z"/>
	<path class="st0" d="M82.5,34.2c0,0.4-0.1,0.8-0.2,1.2s-0.3,0.7-0.7,1c-0.2,0.2-0.5,0.3-0.8,0.4s-0.6,0.2-1,0.2s-0.7-0.1-1-0.2
		c-0.3-0.1-0.6-0.3-0.8-0.4c-0.3-0.3-0.6-0.6-0.7-1s-0.2-0.7-0.2-1.2c0-0.4,0.1-0.8,0.2-1.2s0.3-0.7,0.7-1c0.2-0.2,0.5-0.3,0.8-0.4
		c0.3-0.1,0.6-0.2,1-0.2s0.7,0.1,1,0.2c0.3,0.1,0.6,0.3,0.8,0.4c0.3,0.3,0.6,0.6,0.7,1S82.5,33.7,82.5,34.2 M81.5,34.2
		c0-0.3,0-0.6-0.1-0.9c-0.1-0.3-0.2-0.5-0.4-0.7c-0.1-0.1-0.3-0.2-0.5-0.3c-0.2-0.1-0.4-0.1-0.6-0.1c-0.2,0-0.4,0-0.6,0.1
		c-0.2,0.1-0.3,0.2-0.5,0.3c-0.2,0.2-0.4,0.4-0.4,0.7c-0.1,0.3-0.1,0.6-0.1,0.9c0,0.3,0,0.6,0.1,0.9c0.1,0.3,0.2,0.5,0.4,0.7
		c0.1,0.1,0.3,0.2,0.5,0.3c0.2,0.1,0.4,0.1,0.6,0.1c0.2,0,0.4,0,0.6-0.1c0.2-0.1,0.3-0.2,0.5-0.3c0.2-0.2,0.4-0.4,0.4-0.7
		C81.4,34.8,81.5,34.5,81.5,34.2"/>
	<path class="st0" d="M87.8,36.7v-3.3c0-0.4-0.1-0.7-0.3-0.9c-0.2-0.2-0.5-0.3-1-0.3c-0.3,0-0.5,0.1-0.8,0.2
		c-0.2,0.1-0.4,0.3-0.5,0.6c-0.1,0.2-0.2,0.4-0.2,0.7s0,0.5,0,0.7v2.4h-1v-5.2h0.9l0.1,0.8c0.1-0.1,0.2-0.3,0.3-0.4
		c0.1-0.1,0.3-0.2,0.4-0.3c0.2-0.1,0.3-0.1,0.5-0.2s0.4-0.1,0.5-0.1c0.7,0,1.2,0.2,1.6,0.5c0.3,0.3,0.5,0.8,0.5,1.4v3.4L87.8,36.7
		L87.8,36.7z"/>
	<path class="st0" d="M95,35.2c0,0.2,0,0.4-0.1,0.6c-0.1,0.2-0.2,0.3-0.3,0.5c-0.2,0.2-0.5,0.4-0.9,0.4c-0.3,0.1-0.7,0.1-1.1,0.1
		c-0.4,0-0.7,0-1.1-0.1c-0.3-0.1-0.6-0.2-0.9-0.5c-0.2-0.2-0.3-0.3-0.4-0.6c-0.1-0.2-0.1-0.4-0.1-0.6h1c0,0.2,0.1,0.3,0.1,0.5
		c0.1,0.1,0.2,0.2,0.3,0.3c0.1,0.1,0.3,0.1,0.5,0.2c0.2,0,0.4,0.1,0.6,0.1c0.2,0,0.4,0,0.6-0.1c0.2,0,0.4-0.1,0.5-0.2
		c0.1-0.1,0.2-0.1,0.2-0.2c0.1-0.1,0.1-0.2,0.1-0.3c0-0.2-0.1-0.4-0.2-0.5c-0.2-0.1-0.4-0.2-0.7-0.2c-0.1,0-0.1,0-0.3,0
		c-0.1,0-0.2,0-0.4,0s-0.3,0-0.4,0c-0.1,0-0.2,0-0.3,0c-0.4-0.1-0.8-0.2-1.1-0.4c-0.3-0.2-0.4-0.6-0.4-0.9c0-0.2,0-0.4,0.1-0.6
		s0.2-0.3,0.3-0.4c0.2-0.2,0.4-0.3,0.7-0.4c0.3-0.1,0.6-0.2,1-0.2c0.4,0,0.8,0.1,1.1,0.2c0.3,0.1,0.6,0.3,0.8,0.5
		c0.1,0.1,0.2,0.3,0.3,0.4c0.1,0.2,0.1,0.3,0.1,0.6h-1c0-0.1,0-0.3-0.1-0.4c-0.1-0.1-0.1-0.2-0.2-0.3c-0.2-0.2-0.6-0.3-1-0.3
		c-0.1,0-0.2,0-0.3,0c-0.1,0-0.2,0-0.4,0.1c-0.2,0.1-0.3,0.2-0.4,0.3c-0.1,0.1-0.2,0.3-0.2,0.4c0,0.2,0.1,0.4,0.2,0.5
		c0.1,0.1,0.3,0.2,0.6,0.2c0.2,0,0.4,0,0.6,0.1c0.2,0,0.5,0.1,0.8,0.1c0.4,0.1,0.8,0.2,1.1,0.5C94.9,34.5,95,34.9,95,35.2"/>
	<path class="st1" d="M46.1,12.7v14.6h1.6V22h4.8l2.2-1.8v-5.7l-2.2-1.8L46.1,12.7L46.1,12.7z M53,19.6l-1.2,1h-4.1V14h4.1l1.2,1
		V19.6L53,19.6z"/>
	<polygon class="st1" points="64.2,14 64.2,12.7 56.2,12.7 56.2,27.4 64.2,27.4 64.2,26 57.8,26 57.8,20.7 64.2,20.7 64.2,19.4 
		57.8,19.4 57.8,14 	"/>
	<polygon class="st1" points="94.4,14 94.4,12.7 86.4,12.7 86.4,27.4 94.4,27.4 94.4,26 88,26 88,20.7 94.4,20.7 94.4,19.4 88,19.4 
		88,14 	"/>
	<polygon class="st1" points="84.9,12.7 75.5,12.7 75.5,14 79.3,14 79.3,27.4 81,27.4 81,14 84.9,14 	"/>
	<polygon class="st1" points="104.5,22.1 102.9,22.1 102.9,25.1 101.6,26.1 98.8,26.1 97.5,25.1 97.5,15 98.8,14 101.6,14 102.9,15 
		102.9,17.9 104.5,17.9 104.5,14.5 102.3,12.6 98.1,12.6 95.9,14.5 95.9,25.6 98.1,27.4 102.3,27.4 104.5,25.6 	"/>
	<polygon class="st1" points="115,27.4 115,12.7 113.4,12.7 113.4,18.6 107.7,18.6 107.7,12.7 106.1,12.7 106.1,27.4 107.7,27.4 
		107.7,19.9 113.4,19.9 113.4,27.4 	"/>
	<path class="st1" d="M74.5,21.8L72.4,20l2.1-1.7v-3.8l-2.2-1.8h-6.5v14.6h6.5l2.2-1.8V21.8z M67.5,14h4.1l1.2,1v2.7l-2,1.6h-3.4V14
		z M72.9,25l-1.2,1h-4.1v-5.4h3.4l2,1.6L72.9,25L72.9,25z"/>
	<polygon class="st1" points="7.2,24.3 8.2,23.3 16.7,31.8 15.6,32.8 	"/>
	<polygon class="st1" points="6.8,15.3 15.3,6.8 16.3,7.8 7.9,16.3 	"/>
	<path class="st2" d="M0,20l1.7-2.9H5L6.6,20L5,22.9H1.7L0,20z M2.5,18.6L1.7,20l0.8,1.4h1.6L4.9,20l-0.8-1.4H2.5z"/>
	<polygon class="st1" points="23.2,8.3 24.2,7.3 32.6,15.8 31.6,16.8 	"/>
	<polygon class="st1" points="23,31.5 31.5,23 32.5,24.1 24.1,32.5 	"/>
	<path class="st3" d="M33.3,20l1.7-2.9h3.3l1.7,2.9l-1.7,2.9H35L33.3,20z M35.8,18.6L35,20l0.8,1.4h1.6l0.8-1.4l-0.8-1.4H35.8z"/>
	<path class="st1" d="M17.2,25.2V15h4l1.4,1.3v4l-1.4,1.3h-2.6v3.6H17.2L17.2,25.2z M21.2,19.7v-2.8l-0.6-0.6h-2v4h2L21.2,19.7z"/>
	<path class="st4" d="M19.9,6.6L17,5V1.7L19.9,0l2.9,1.7V5L19.9,6.6z M18.5,4.1L19.9,5l1.4-0.8V2.5l-1.4-0.8l-1.4,0.8V4.1z"/>
	<path class="st0" d="M19.9,40L17,38.3V35l2.9-1.7l2.9,1.7v3.3L19.9,40z M18.5,37.5l1.4,0.8l1.4-0.8v-1.6L19.9,35l-1.4,0.8V37.5z"/>
</g>
</svg>
